<svg width="184" height="88" viewBox="0 0 184 88" fill="none" xmlns="http://www.w3.org/2000/svg">
<g clip-path="url(#clip0_477_5728)">
<rect width="184" height="88" fill="white"/>
<mask id="mask0_477_5728" style="mask-type:alpha" maskUnits="userSpaceOnUse" x="0" y="0" width="184" height="88">
<rect width="184" height="88" fill="#D9D9D9"/>
</mask>
<g mask="url(#mask0_477_5728)">
<rect x="-2" y="-2" width="191" height="94" fill="#FAFAFA"/>
<path d="M95 51L89 48.89V37L95 39.11V51ZM100.5 35C100.44 35 100.39 35 100.34 35L95 37.1L89 35L83.36 36.9C83.15 36.97 83 37.15 83 37.38V52.5C83 52.6326 83.0527 52.7598 83.1464 52.8536C83.2402 52.9473 83.3674 53 83.5 53C83.55 53 83.61 53 83.66 52.97L89 50.9L95 53L100.64 51.1C100.85 51 101 50.85 101 50.62V35.5C101 35.3674 100.947 35.2402 100.854 35.1464C100.76 35.0527 100.633 35 100.5 35Z" fill="black" fill-opacity="0.54"/>
<path d="M35 35H21C19.89 35 19 35.9 19 37V51C19 52.1 19.89 53 21 53H35C36.11 53 37 52.1 37 51V37C37 35.9 36.11 35 35 35ZM26 49L21 44L22.41 42.59L26 46.17L33.59 38.58L35 40L26 49Z" fill="black" fill-opacity="0.54"/>
<path d="M-7 43H-9V45H-7V43ZM-3 43H-5V45H-3V43ZM1 43H-1V45H1V43ZM3 36H2V34H0V36H-8V34H-10V36H-11C-12.11 36 -12.99 36.9 -12.99 38L-13 52C-13 53.1 -12.11 54 -11 54H3C4.1 54 5 53.1 5 52V38C5 36.9 4.1 36 3 36ZM3 52H-11V41H3V52Z" fill="black" fill-opacity="0.54"/>
<path d="M162 43V45H166V43H162ZM160 49.61C160.96 50.32 162.21 51.26 163.2 52C163.6 51.47 164 50.93 164.4 50.4C163.41 49.66 162.16 48.72 161.2 48C160.8 48.54 160.4 49.08 160 49.61ZM164.4 37.6C164 37.07 163.6 36.53 163.2 36C162.21 36.74 160.96 37.68 160 38.4C160.4 38.93 160.8 39.47 161.2 40C162.16 39.28 163.41 38.35 164.4 37.6ZM148 41C146.9 41 146 41.9 146 43V45C146 46.1 146.9 47 148 47H149V51H151V47H152L157 50V38L152 41H148ZM159.5 44C159.5 42.67 158.92 41.47 158 40.65V47.34C158.92 46.53 159.5 45.33 159.5 44Z" fill="black" fill-opacity="0.54"/>
<path d="M97.81 -11.53C97.73 -11.53 97.65 -11.55 97.58 -11.59C95.66 -12.58 94 -13 92.01 -13C90.03 -13 88.15 -12.53 86.44 -11.59C86.2 -11.46 85.9 -11.55 85.76 -11.79C85.63 -12.03 85.72 -12.34 85.96 -12.47C87.82 -13.48 89.86 -14 92.01 -14C94.14 -14 96 -13.53 98.04 -12.48C98.29 -12.35 98.38 -12.05 98.25 -11.81C98.16 -11.63 97.99 -11.53 97.81 -11.53V-11.53ZM83.5 -6.28C83.4 -6.28 83.3 -6.31 83.21 -6.37C82.98 -6.53 82.93 -6.84 83.09 -7.07C84.08 -8.47 85.34 -9.57 86.84 -10.34C89.98 -11.96 94 -11.97 97.15 -10.35C98.65 -9.58 99.91 -8.49 100.9 -7.1C101.06 -6.88 101.01 -6.56 100.78 -6.4C100.55 -6.24 100.24 -6.29 100.08 -6.52C99.18 -7.78 98.04 -8.77 96.69 -9.46C93.82 -10.93 90.15 -10.93 87.29 -9.45C85.93 -8.75 84.79 -7.75 83.89 -6.49C83.81 -6.35 83.66 -6.28 83.5 -6.28V-6.28ZM89.75 5.79C89.62 5.79 89.49 5.74 89.4 5.64C88.53 4.77 88.06 4.21 87.39 3C86.7 1.77 86.34 0.27 86.34 -1.34C86.34 -4.31 88.88 -6.73 92 -6.73C95.12 -6.73 97.66 -4.31 97.66 -1.34C97.66 -1.06 97.44 -0.84 97.16 -0.84C96.88 -0.84 96.66 -1.06 96.66 -1.34C96.66 -3.76 94.57 -5.73 92 -5.73C89.43 -5.73 87.34 -3.76 87.34 -1.34C87.34 0.0999999 87.66 1.43 88.27 2.51C88.91 3.66 89.35 4.15 90.12 4.93C90.31 5.13 90.31 5.44 90.12 5.64C90.01 5.74 89.88 5.79 89.75 5.79ZM96.92 3.94C95.73 3.94 94.68 3.64 93.82 3.05C92.33 2.04 91.44 0.4 91.44 -1.34C91.44 -1.62 91.66 -1.84 91.94 -1.84C92.22 -1.84 92.44 -1.62 92.44 -1.34C92.44 0.0699998 93.16 1.4 94.38 2.22C95.09 2.7 95.92 2.93 96.92 2.93C97.16 2.93 97.56 2.9 97.96 2.83C98.23 2.78 98.49 2.96 98.54 3.24C98.59 3.51 98.41 3.77 98.13 3.82C97.56 3.93 97.06 3.94 96.92 3.94V3.94ZM94.91 6C94.87 6 94.82 5.99 94.78 5.98C93.19 5.54 92.15 4.95 91.06 3.88C89.66 2.49 88.89 0.64 88.89 -1.34C88.89 -2.96 90.27 -4.28 91.97 -4.28C93.67 -4.28 95.05 -2.96 95.05 -1.34C95.05 -0.27 95.98 0.6 97.13 0.6C98.28 0.6 99.21 -0.27 99.21 -1.34C99.21 -5.11 95.96 -8.17 91.96 -8.17C89.12 -8.17 86.52 -6.59 85.35 -4.14C84.96 -3.33 84.76 -2.38 84.76 -1.34C84.76 -0.56 84.83 0.67 85.43 2.27C85.53 2.53 85.4 2.82 85.14 2.91C84.88 3.01 84.59 2.87 84.5 2.62C84.01 1.31 83.77 0.00999987 83.77 -1.34C83.77 -2.54 84 -3.63 84.45 -4.58C85.78 -7.37 88.73 -9.18 91.96 -9.18C96.51 -9.18 100.21 -5.67 100.21 -1.35C100.21 0.27 98.83 1.59 97.13 1.59C95.43 1.59 94.05 0.27 94.05 -1.35C94.05 -2.42 93.12 -3.29 91.97 -3.29C90.82 -3.29 89.89 -2.42 89.89 -1.35C89.89 0.36 90.55 1.96 91.76 3.16C92.71 4.1 93.62 4.62 95.03 5.01C95.3 5.08 95.45 5.36 95.38 5.62C95.33 5.85 95.12 6 94.91 6V6Z" fill="black" fill-opacity="0.54"/>
<path d="M28 -14C24.14 -14 21 -10.86 21 -7C21 -1.75 28 6 28 6C28 6 35 -1.75 35 -7C35 -10.86 31.86 -14 28 -14ZM26.44 -4H25V-5.44L28.35 -8.78L29.78 -7.35L26.44 -4ZM30.89 -8.45L30.19 -7.75L28.75 -9.19L29.45 -9.89C29.6 -10.04 29.84 -10.04 29.99 -9.89L30.89 -8.99C31.04 -8.84 31.04 -8.6 30.89 -8.45V-8.45Z" fill="black" fill-opacity="0.54"/>
<path d="M6 -13H-14C-15.1 -13 -16 -12.1 -16 -11V3C-16 4.1 -15.1 5 -14 5H6C7.1 5 7.99 4.1 7.99 3L8 -11C8 -12.1 7.1 -13 6 -13ZM-8 -10C-6.34 -10 -5 -8.66 -5 -7C-5 -5.34 -6.34 -4 -8 -4C-9.66 -4 -11 -5.34 -11 -7C-11 -8.66 -9.66 -10 -8 -10ZM-2 2H-14V1C-14 -1 -10 -2.1 -8 -2.1C-6 -2.1 -2 -1 -2 1V2ZM1.85 -2H3.49L5 0L3.01 1.99C1.7 1.01 0.730001 -0.39 0.280001 -2C0.100001 -2.64 0 -3.31 0 -4C0 -4.69 0.100001 -5.36 0.280001 -6C0.730001 -7.62 1.7 -9.01 3.01 -9.99L5 -8L3.49 -6H1.85C1.63 -5.37 1.5 -4.7 1.5 -4C1.5 -3.3 1.63 -2.63 1.85 -2V-2Z" fill="black" fill-opacity="0.54"/>
<path d="M153 5C153 5.5 153.4 6 154 6H158C158.6 6 159 5.5 159 5V4H153V5ZM156 -14C152.1 -14 149 -10.9 149 -7C149 -4.6 150.2 -2.5 152 -1.3V1C152 1.5 152.4 2 153 2H159C159.6 2 160 1.5 160 1V-1.3C161.8 -2.6 163 -4.7 163 -7C163 -10.9 159.9 -14 156 -14Z" fill="black" fill-opacity="0.54"/>
<path d="M91 82H83V84H91V82Z" fill="black" fill-opacity="0.54"/>
<path d="M86 91H88V87H91V85H83V87H86V91Z" fill="black" fill-opacity="0.54"/>
<path d="M95.5 91C96.88 91 98 89.88 98 88.5V84H101V82H97V86.51C96.58 86.19 96.07 86 95.5 86C94.12 86 93 87.12 93 88.5C93 89.88 94.12 91 95.5 91Z" fill="black" fill-opacity="0.54"/>
<path d="M31.5 85H27L32 92L27 99H31.5L36.5 92L31.5 85Z" fill="black" fill-opacity="0.54"/>
<path d="M24.5 85H20L25 92L20 99H24.5L29.5 92L24.5 85Z" fill="black" fill-opacity="0.54"/>
<path d="M-4 82C-9.53 82 -14 86.47 -14 92C-14 97.53 -9.53 102 -4 102C1.53 102 6 97.53 6 92C6 86.47 1.53 82 -4 82ZM1 95.59L-0.41 97L-4 93.41L-7.59 97L-9 95.59L-5.41 92L-9 88.41L-7.59 87L-4 90.59L-0.41 87L1 88.41L-2.59 92L1 95.59Z" fill="black" fill-opacity="0.54"/>
<path d="M147 93H155V83H147V93ZM147 101H155V95H147V101ZM157 101H165V91H157V101ZM157 83V89H165V83H157Z" fill="black" fill-opacity="0.54"/>
<path d="M116.5 44C117.881 44 119 42.8807 119 41.5C119 40.1193 117.881 39 116.5 39C115.119 39 114 40.1193 114 41.5C114 42.8807 115.119 44 116.5 44Z" fill="black" fill-opacity="0.54"/>
<path d="M121 40C122.381 40 123.5 38.8807 123.5 37.5C123.5 36.1193 122.381 35 121 35C119.619 35 118.5 36.1193 118.5 37.5C118.5 38.8807 119.619 40 121 40Z" fill="black" fill-opacity="0.54"/>
<path d="M127 40C128.381 40 129.5 38.8807 129.5 37.5C129.5 36.1193 128.381 35 127 35C125.619 35 124.5 36.1193 124.5 37.5C124.5 38.8807 125.619 40 127 40Z" fill="black" fill-opacity="0.54"/>
<path d="M131.5 44C132.881 44 134 42.8807 134 41.5C134 40.1193 132.881 39 131.5 39C130.119 39 129 40.1193 129 41.5C129 42.8807 130.119 44 131.5 44Z" fill="black" fill-opacity="0.54"/>
<path d="M129.34 46.86C128.47 45.84 127.74 44.97 126.86 43.95C126.4 43.41 125.81 42.87 125.11 42.63C125 42.59 124.89 42.56 124.78 42.54C124.53 42.5 124.26 42.5 124 42.5C123.74 42.5 123.47 42.5 123.21 42.55C123.1 42.57 122.99 42.6 122.88 42.64C122.18 42.88 121.6 43.42 121.13 43.96C120.26 44.98 119.53 45.85 118.65 46.87C117.34 48.18 115.73 49.63 116.03 51.66C116.32 52.68 117.05 53.69 118.36 53.98C119.09 54.13 121.42 53.54 123.9 53.54H124.08C126.56 53.54 128.89 54.12 129.62 53.98C130.93 53.69 131.66 52.67 131.95 51.66C132.26 49.62 130.65 48.17 129.34 46.86V46.86Z" fill="black" fill-opacity="0.54"/>
<path d="M68 36H52C50.89 36 50.01 36.89 50.01 38L50 50C50 51.11 50.89 52 52 52H68C69.11 52 70 51.11 70 50V38C70 36.89 69.11 36 68 36ZM68 50H52V44H68V50ZM68 40H52V38H68V40Z" fill="black" fill-opacity="0.54"/>
<g clip-path="url(#clip1_477_5728)">
<path d="M196 47.31L199.31 44L196 40.69V36H191.31L188 32.69L184.69 36H180V40.69L176.69 44L180 47.31V52H184.69L188 55.31L191.31 52H196V47.31V47.31ZM188 50V38C191.31 38 194 40.69 194 44C194 47.31 191.31 50 188 50Z" fill="black" fill-opacity="0.54"/>
</g>
<path d="M121 -5H119V-3H121V-5ZM125 -1H123V1H125V-1ZM131 3H117V-11H131V3ZM115 5H133V-13H115V5ZM129 -5H127V-3H129V-5ZM125 -5H123V-3H125V-5ZM125 -9H123V-7H125V-9Z" fill="black" fill-opacity="0.54"/>
<path d="M67 -13H53C51.9 -13 51 -12.1 51 -11V3C51 4.1 51.9 5 53 5H67C68.1 5 69 4.1 69 3V-11C69 -12.1 68.1 -13 67 -13ZM56.5 -10C57.19 -10 57.75 -9.44 57.75 -8.75C57.75 -8.06 57.19 -7.5 56.5 -7.5C55.81 -7.5 55.25 -8.06 55.25 -8.75C55.25 -9.44 55.81 -10 56.5 -10ZM59 -2H58V2H55V-2H54V-4.5C54 -5.6 54.9 -6.5 56 -6.5H57C58.1 -6.5 59 -5.6 59 -4.5V-2ZM63.5 1L61 -3H66L63.5 1ZM61 -5L63.5 -9L66 -5H61Z" fill="black" fill-opacity="0.54"/>
<path d="M197 3.1H179V-11H197V3.1ZM197 -13H179C177.9 -13 177 -12.1 177 -11V3C177 4.1 177.9 5 179 5H197C198.1 5 199 4.1 199 3V-11C199 -12.1 198.1 -13 197 -13Z" fill="black" fill-opacity="0.54"/>
<path d="M122.09 95.59L123.5 97L128.5 92L123.5 87L122.09 88.41L124.67 91H115V93H124.67L122.09 95.59ZM131 83H117C115.89 83 115 83.9 115 85V89H117V85H131V99H117V95H115V99C115 100.1 115.89 101 117 101H131C132.1 101 133 100.1 133 99V85C133 83.9 132.1 83 131 83Z" fill="black" fill-opacity="0.54"/>
<path d="M50.5 99H69.5V101H50.5V99ZM70.07 89.64C69.86 88.84 69.03 88.36 68.23 88.58L62.92 90L56.02 83.57L54.09 84.08L58.23 91.25L53.26 92.58L51.29 91.04L49.84 91.43L52.43 95.92C52.43 95.92 59.55 94.02 69 91.49C69.81 91.26 70.28 90.44 70.07 89.64Z" fill="black" fill-opacity="0.54"/>
<path d="M177 82V103H179V101H197V103H199V87C199 84.79 197.21 83 195 83H186V88H179V82H177ZM182.5 82C181.837 82 181.201 82.2634 180.732 82.7322C180.263 83.2011 180 83.837 180 84.5C180 85.163 180.263 85.7989 180.732 86.2678C181.201 86.7366 181.837 87 182.5 87C182.828 87 183.153 86.9353 183.457 86.8097C183.76 86.6841 184.036 86.4999 184.268 86.2678C184.5 86.0356 184.684 85.76 184.81 85.4567C184.935 85.1534 185 84.8283 185 84.5C185 83.837 184.737 83.2011 184.268 82.7322C183.799 82.2634 183.163 82 182.5 82V82ZM179 91H197V93.56C196.41 93.21 195.73 93 195 93H186V98H179V91ZM182.5 92C181.837 92 181.201 92.2634 180.732 92.7322C180.263 93.2011 180 93.837 180 94.5C180 95.163 180.263 95.7989 180.732 96.2678C181.201 96.7366 181.837 97 182.5 97C183.163 97 183.799 96.7366 184.268 96.2678C184.737 95.7989 185 95.163 185 94.5C185 93.837 184.737 93.2011 184.268 92.7322C183.799 92.2634 183.163 92 182.5 92V92Z" fill="black" fill-opacity="0.54"/>
<path d="M103 18H100V25H103V18Z" fill="black" fill-opacity="0.54"/>
<path d="M109.5 18H106.5V25H109.5V18Z" fill="black" fill-opacity="0.54"/>
<path d="M118 27H98V30H118V27Z" fill="black" fill-opacity="0.54"/>
<path d="M116 18H113V25H116V18Z" fill="black" fill-opacity="0.54"/>
<path d="M108 9L98 14V16H118V14L108 9Z" fill="black" fill-opacity="0.54"/>
<path d="M52 15H47V12C47 10.9 46.1 10 45 10H43C41.9 10 41 10.9 41 12V15H36C34.9 15 34 15.9 34 17V28C34 29.1 34.9 30 36 30H52C53.1 30 54 29.1 54 28V17C54 15.9 53.1 15 52 15ZM41 20C41.83 20 42.5 20.67 42.5 21.5C42.5 22.33 41.83 23 41 23C40.17 23 39.5 22.33 39.5 21.5C39.5 20.67 40.17 20 41 20ZM44 26H38V25.25C38 24.25 40 23.75 41 23.75C42 23.75 44 24.25 44 25.25V26ZM45 17H43V12H45V17ZM50 24.5H46V23H50V24.5ZM50 21.5H46V20H50V21.5Z" fill="black" fill-opacity="0.54"/>
<path d="M20 12H4C2.9 12 2.01 12.9 2.01 14L2 26C2 27.1 2.9 28 4 28H20C21.1 28 22 27.1 22 26V14C22 12.9 21.1 12 20 12ZM20 16L12 21L4 16V14L12 19L20 14V16Z" fill="black" fill-opacity="0.54"/>
<path d="M180 11H164V21C164 23.21 165.79 25 168 25H174C176.21 25 178 23.21 178 21V18H180C181.11 18 182 17.1 182 16V13C182 11.89 181.11 11 180 11ZM180 16H178V13H180V16ZM164 27H180V29H164V27Z" fill="black" fill-opacity="0.54"/>
<path d="M108 58C102.47 58 98 62.47 98 68C98 73.53 102.47 78 108 78C113.53 78 118 73.53 118 68C118 62.47 113.53 58 108 58ZM113 71.59L111.59 73L108 69.41L104.41 73L103 71.59L106.59 68L103 64.41L104.41 63L108 66.59L111.59 63L113 64.41L109.41 68L113 71.59Z" fill="black" fill-opacity="0.54"/>
<path d="M44 58C45.1 58 46 58.9 46 60C46 61.1 45.1 62 44 62C42.9 62 42 61.1 42 60C42 58.9 42.9 58 44 58ZM53 65H47V78H45V72H43V78H41V65H35V63H53V65Z" fill="black" fill-opacity="0.54"/>
<path d="M22 61.72L17.4 57.86L16.11 59.39L20.71 63.25L22 61.72ZM7.88 59.39L6.6 57.86L2 61.71L3.29 63.24L7.88 59.39ZM12.5 64H11V70L15.75 72.85L16.5 71.62L12.5 69.25V64ZM12 60C7.03 60 3 64.03 3 69C3 73.97 7.02 78 12 78C16.97 78 21 73.97 21 69C21 64.03 16.97 60 12 60ZM12 76C8.13 76 5 72.87 5 69C5 65.13 8.13 62 12 62C15.87 62 19 65.13 19 69C19 72.87 15.87 76 12 76Z" fill="black" fill-opacity="0.54"/>
<path d="M163 73.25V77H166.75L177.81 65.94L174.06 62.19L163 73.25ZM180.71 63.04C181.1 62.65 181.1 62.02 180.71 61.63L178.37 59.29C177.98 58.9 177.35 58.9 176.96 59.29L175.13 61.12L178.88 64.87L180.71 63.04V63.04Z" fill="black" fill-opacity="0.54"/>
<path d="M144.59 16.59L140 21.17L135.41 16.59L134 18L140 24L146 18L144.59 16.59Z" fill="black" fill-opacity="0.54"/>
<path d="M83 11H78.82C78.4 9.84 77.3 9 76 9C74.7 9 73.6 9.84 73.18 11H69C67.9 11 67 11.9 67 13V27C67 28.1 67.9 29 69 29H83C84.1 29 85 28.1 85 27V13C85 11.9 84.1 11 83 11ZM76 11C76.55 11 77 11.45 77 12C77 12.55 76.55 13 76 13C75.45 13 75 12.55 75 12C75 11.45 75.45 11 76 11ZM76 15C77.66 15 79 16.34 79 18C79 19.66 77.66 21 76 21C74.34 21 73 19.66 73 18C73 16.34 74.34 15 76 15ZM82 27H70V25.6C70 23.6 74 22.5 76 22.5C78 22.5 82 23.6 82 25.6V27Z" fill="black" fill-opacity="0.54"/>
<path d="M130 73H132V73.5H131V74.5H132V75H130V76H133V72H130V73ZM131 64H132V60H130V61H131V64ZM130 67H131.8L130 69.1V70H133V69H131.2L133 66.9V66H130V67ZM135 61V63H149V61H135ZM135 75H149V73H135V75ZM135 69H149V67H135V69Z" fill="black" fill-opacity="0.54"/>
<path d="M75 63H77V65H75V63ZM75 67H77V73H75V67ZM76 58C70.48 58 66 62.48 66 68C66 73.52 70.48 78 76 78C81.52 78 86 73.52 86 68C86 62.48 81.52 58 76 58ZM76 76C71.59 76 68 72.41 68 68C68 63.59 71.59 60 76 60C80.41 60 84 63.59 84 68C84 72.41 80.41 76 76 76Z" fill="black" fill-opacity="0.54"/>
<rect x="-16" y="-14" width="215" height="118" fill="url(#paint0_linear_477_5728)" style="mix-blend-mode:overlay"/>
</g>
</g>
<defs>
<linearGradient id="paint0_linear_477_5728" x1="-15" y1="-13.5" x2="199" y2="104" gradientUnits="userSpaceOnUse">
<stop stop-color="#5CC5CD"/>
<stop offset="1" stop-color="#586AB0"/>
</linearGradient>
<clipPath id="clip0_477_5728">
<rect width="184" height="88" fill="white"/>
</clipPath>
<clipPath id="clip1_477_5728">
<rect width="24" height="24" fill="white" transform="translate(176 32)"/>
</clipPath>
</defs>
</svg>
